<?xml version="1.0" encoding="UTF-8" standalone="no"?>
<!-- Created with Inkscape (http://www.inkscape.org/) -->

<svg
   version="1.1"
   width="191.345"
   height="250.66237"
   id="svg2"
   xml:space="preserve"
   sodipodi:docname="Montreal_Metro_Logo-Green.svg"
   inkscape:version="1.1.1 (3bf5ae0, 2021-09-20)"
   xmlns:inkscape="http://www.inkscape.org/namespaces/inkscape"
   xmlns:sodipodi="http://sodipodi.sourceforge.net/DTD/sodipodi-0.dtd"
   xmlns="http://www.w3.org/2000/svg"
   xmlns:svg="http://www.w3.org/2000/svg"><sodipodi:namedview
     id="namedview73"
     pagecolor="#ffffff"
     bordercolor="#666666"
     borderopacity="1.0"
     inkscape:pageshadow="2"
     inkscape:pageopacity="0.0"
     inkscape:pagecheckerboard="0"
     showgrid="false"
     inkscape:zoom="2.2300914"
     inkscape:cx="95.511779"
     inkscape:cy="125.33118"
     inkscape:window-width="1536"
     inkscape:window-height="784"
     inkscape:window-x="0"
     inkscape:window-y="0"
     inkscape:window-maximized="1"
     inkscape:current-layer="svg2" /><defs
     id="defs6"><clipPath
       id="clipPath20"><path
         d="M 0,2005.3 0,0 l 1530.76,0 0,2005.3"
         id="path22" /></clipPath></defs><path
     d="m 0.00878906,209.39554 191.33625094,0 0,-209.395545 -191.33625094,0 0,209.395535 z"
     id="path24"
     style="fill:#00ff00;fill-opacity:1;fill-rule:nonzero;stroke:none" /><path
     d="m 95.67575,175.42599 c 44.0305,0 79.72425,-35.69375 79.72425,-79.72237 0,-44.03 -35.69375,-79.72375 -79.72425,-79.72375 -44.02825,0 -79.723625,35.69375 -79.723625,79.72375 0,44.02862 35.695375,79.72237 79.723625,79.72237"
     id="path26"
     style="fill:#ffffff;fill-opacity:1;fill-rule:nonzero;stroke:none" /><path
     d="m 95.67575,155.49587 c 33.023,0 59.79425,-26.7725 59.79425,-59.79225 0,-33.0225 -26.77125,-59.79375 -59.79425,-59.79375 -33.0215,0 -59.7925,26.77125 -59.7925,59.79375 0,33.01975 26.771,59.79225 59.7925,59.79225"
     id="path28"
     style="fill:#00ff00;fill-opacity:1;fill-rule:nonzero;stroke:none" /><path
     d="m 85,32.09375 0,77.625 -29.53125,-30.09375 -15.75,16.03125 55.96875,56.53125 56.25,-56.25 -16.3125,-16.3125 -29.8125,29.8125 0,-77.34375 -20.8125,0 z"
     id="path30"
     style="fill:#ffffff;fill-opacity:1;fill-rule:nonzero;stroke:none" /><path
     d="m 0,250.66237 191.345,0 0,-59.29975 -191.345,0 0,59.29975 z"
     id="path34"
     style="fill:#231f20;fill-opacity:1;fill-rule:nonzero;stroke:none" /><path
     d="m 41.330125,241.16872 0,-24.3926 c 0,-1.209 0.09812,-6.44237 0.09812,-10.29638 l -0.09812,0 -9.943875,34.68898 -4.726625,0 -9.94375,-34.63285 -0.09863,0 c 0,3.79788 0.09863,9.03125 0.09863,10.24025 l 0,24.3926 -4.627987,0 0,-41.30372 6.843237,0 10.091875,34.916 0.09812,0 10.042875,-34.916 6.7935,0 0,41.30372 -4.627375,0"
     id="path36"
     style="fill:#ffffff;fill-opacity:1;fill-rule:nonzero;stroke:none" /><path
     d="m 78.34325,241.16872 -26.09075,0 0,-41.30372 25.746,0 0,4.94625 -20.970625,0 0,12.65625 19.346625,0 0,4.94637 -19.346625,0 0,13.80612 21.315375,0 0,4.94873"
     id="path38"
     style="fill:#ffffff;fill-opacity:1;fill-rule:nonzero;stroke:none" /><path
     d="m 80.07025,199.865 28.70075,0 0,4.94625 -11.962875,0 0,36.35747 -4.774875,0 0,-36.35747 -11.963,0 0,-4.94625"
     id="path40"
     style="fill:#ffffff;fill-opacity:1;fill-rule:nonzero;stroke:none" /><path
     d="m 117.086,241.16872 -4.7755,0 0,-41.30372 16.3445,0 c 5.80875,0 11.61875,2.35737 11.61875,11.09962 0,6.09912 -2.65875,8.34275 -4.925,9.895 2.02,0.979 4.03875,2.01513 4.235,7.76662 l 0.295,7.4785 c 0.0488,2.30128 0.29625,3.16408 1.77125,4.14259 l 0,0.92139 -5.85625,0 c -0.69,-2.53271 -0.8375,-8.80273 -0.8375,-10.35647 0,-3.39351 -0.59125,-7.36226 -6.30125,-7.36226 l -11.569,0 0,17.71873 z m 0,-22.4936 11.0765,0 c 3.495,0 7.18625,-1.03663 7.18625,-7.13388 0,-6.38524 -3.98625,-6.90275 -6.35,-6.90275 l -11.91275,0 0,14.03663"
     id="path42"
     style="fill:#ffffff;fill-opacity:1;fill-rule:nonzero;stroke:none" /><path
     d="m 161.19625,242.26002 c -13.19375,0 -17.23125,-12.82765 -17.23125,-21.74415 0,-8.9175 4.0375,-21.74462 17.23125,-21.74462 13.19375,0 17.22875,12.82712 17.22875,21.74462 0,8.9165 -4.035,21.74415 -17.22875,21.74415 z m 0,-38.54152 c -7.68,0 -12.3075,7.07624 -12.3075,16.79737 0,9.72175 4.6275,16.79787 12.3075,16.79787 7.67875,0 12.3075,-7.07612 12.3075,-16.79787 0,-9.72113 -4.62875,-16.79737 -12.3075,-16.79737"
     id="path44"
     style="fill:#ffffff;fill-opacity:1;fill-rule:nonzero;stroke:none" /><path
     d="m 54.3335,197.73124 21.9375,-1.1265"
     id="path46"
     style="fill:none;stroke:#ffffff;stroke-width:1.125;stroke-linecap:butt;stroke-linejoin:miter;stroke-miterlimit:4;stroke-opacity:1;stroke-dasharray:none" /></svg>
